<svg height="82" viewBox="0 0 239.87 26.88" width="232" xmlns="http://www.w3.org/2000/svg"><g transform="translate(-30.21 -22.77)"><path d="m52.64 28.75a6 6 0 1 1 -6-6 6 6 0 0 1 6 6m-11.29 11.93a6 6 0 1 0 0 6 6.21 6.21 0 0 1 5.31-2.93 6.1 6.1 0 0 1 5.25 2.93 6 6 0 1 0 0-6 6.12 6.12 0 0 1 -5.25 2.93 6.21 6.21 0 0 1 -5.31-2.93" fill="#4a98b8"/><g fill="#4f659a"><path d="m93.89 46v-8.76h2.83v10.23a13.35 13.35 0 0 1 -7.8 2.18c-7.1 0-11.31-4-11.31-10.41s4.74-10.48 11.39-10.48a21.6 21.6 0 0 1 6.88 1v2.52a24.94 24.94 0 0 0 -6.29-.92c-5.44 0-8.57 3.19-8.57 7.89-.02 4.94 3.44 7.75 8.08 7.75a12.31 12.31 0 0 0 4.79-1z"/><path d="m114.6 29.19 8.17 20h-3.41l-1.93-4.7h-10l-1.84 4.7h-3.38l8.32-20zm-6.24 13.09h8.21l-4.09-10.57c-.31.74-2.58 6.67-4.12 10.57z"/><path d="m143.38 49.16h-14.07v-20h3.35v17.51h10.72z"/><path d="m149.53 29.19a57.63 57.63 0 0 1 7.21-.43c6.94 0 11.83 4 11.83 10.48s-4.73 10.41-11.79 10.41a56.8 56.8 0 0 1 -7.25-.49zm15.54 10.05c0-4.64-3.26-7.74-8.33-7.74-1.2 0-2.61.09-3.86.18v15c1.1.09 2.42.18 3.9.18 4.88.03 8.29-2.98 8.29-7.62z"/><path d="m190.38 49.16h-14.38v-20h13.64v2.64h-10.32v5.66h8.39v2.54h-8.39v6.61h11.06z"/><path d="m197.41 29.19a42.52 42.52 0 0 1 6.08-.43c5.44 0 8.17 2.77 8.17 6.43 0 3-1.93 4.82-4.21 5.89l6.73 8.08h-4.18l-5.62-7.07a23.43 23.43 0 0 1 -3.87.47v6.6h-3.1zm3.1 2.37v8.64c2 0 7.81-.4 7.81-4.67 0-2.46-1.6-4.12-4.82-4.12-.9 0-2 .09-2.99.15z"/><path d="m245.18 49.16h-3.18l-2.35-15.16-6.45 15.16h-2.92l-6.58-15.16-2.21 15.14h-3.22l3.38-20h3.19l6.91 16.47 7-16.47h3.25z"/><path d="m261.92 29.19 8.17 20h-3.41l-1.94-4.7h-10l-1.85 4.7h-3.38l8.33-20zm-6.24 13.09h8.21l-4.09-10.57c-.31.74-2.58 6.67-4.12 10.57z"/></g></g></svg>