<svg xmlns="http://www.w3.org/2000/svg" viewBox="0 0 197 39.15">
	<defs>
		<style>.cls-1{fill:#56575b;}.cls-2{fill:#3a98cd;}.cls-3{fill:#bdbcb0;}.cls-4{fill:#d9531e;}.cls-5{fill:#ffc80b;}</style>
	</defs>
	<title>Lumeris</title>
  <path class="cls-1" d="M0,12.2v11A3.92,3.92,0,0,0,2,27a13.24,13.24,0,0,0,6.11,1.14H20.19V25.58h-11A8.85,8.85,0,0,1,5.31,25,2.82,2.82,0,0,1,4,22.38V12.2Z"/><path class="cls-1" d="M23,12.24v11c0,3.31,2,4.91,6.14,4.91h7.09c4.13,0,6.14-1.61,6.14-4.91v-11H38.92v10c0,1.35-.69,3-4,3H30.51a4.72,4.72,0,0,1-3-.7,3,3,0,0,1-1-2.35v-10Z"/><path class="cls-1" d="M70.89,27.94h3.45V17.37a4.76,4.76,0,0,0-1.47-3.72,5.88,5.88,0,0,0-4.1-1.37H65.08a5.69,5.69,0,0,0-4.69,2l-.27.33-.26-.34A5,5,0,0,0,58,12.7a7.2,7.2,0,0,0-2.76-.43H51.47c-3.81,0-5.67,1.67-5.67,5.09V27.94h3.45V18.23c0-1.43.62-3.14,3.55-3.14a18.79,18.79,0,0,1,3.89.23c1.17.43,1.75,1.44,1.75,3v9.62h3.41V18.31A3.1,3.1,0,0,1,62.47,16,3.42,3.42,0,0,1,65,15a22.53,22.53,0,0,1,3.94.19,2.77,2.77,0,0,1,2,3Z"/><path class="cls-1" d="M84,12.19c-4.21,0-6.26,1.27-6.26,3.88v7.86a3.44,3.44,0,0,0,1.84,3.28,9.64,9.64,0,0,0,4.79.91H97V25.93H85.17a6.52,6.52,0,0,1-2.66-.39A2.94,2.94,0,0,1,81.27,23v-.81l15.82-4.05V16.33c0-2.79-1.9-4.14-5.81-4.14Zm-2.8,7.94V16.79c0-1.64,1.39-2.48,4.14-2.48h4.55c2.4,0,3.62.75,3.62,2.24v.51Z"/><path class="cls-1" d="M100.66,28h3.6V17.07a2.43,2.43,0,0,1,1.89-2.55,14.32,14.32,0,0,1,2.17-.08h4.35v-2.3H107c-4.27,0-6.35,1.35-6.35,4.14Z"/><rect class="cls-1" x="115.65" y="12.19" width="3.45" height="15.92"/><path class="cls-1" d="M122.57,28.11h12a12.34,12.34,0,0,0,2.35-.17,3.74,3.74,0,0,0,1.78-.88,3.18,3.18,0,0,0,1.41-2.54v-2A2.93,2.93,0,0,0,138.73,20a6.18,6.18,0,0,0-3.66-1h-5.4c-2.42,0-3.65-.69-3.65-2.06v-.68a1.69,1.69,0,0,1,1.21-1.53,5.83,5.83,0,0,1,2.34-.36h10V12.19H128.48a8.42,8.42,0,0,0-3.87.68,3,3,0,0,0-2,2.68v2.23a2.82,2.82,0,0,0,1.71,2.47,8.45,8.45,0,0,0,4.1.9h5.09c2.51,0,3,1.11,3,2a3,3,0,0,1-.5,2,3.4,3.4,0,0,1-2.58.76h-10.9Z"/><path class="cls-2" d="M163.49,15.19a14.17,14.17,0,0,1,3.18,6,4.56,4.56,0,0,1-2,4.55l-9.37,7.48V26.93l5.21-4.16s4.62-3.8,3-7.58"/><path class="cls-3" d="M155.31,11.16l4.54,5.73a8,8,0,0,1,1.77,3.35,2.42,2.42,0,0,1-.74,2.22c1.05-1,4-4.11,2.61-7.26L155.31,4.88Z"/><path class="cls-2" d="M169.23,26.9a14.19,14.19,0,0,1,3.58-5.76,4.55,4.55,0,0,1,4.93-.58l11.18,4.34-5.43,3.16-6.21-2.41s-5.61-2.08-8,1.25"/><path class="cls-4" d="M169.86,36l2.67-6.8a8,8,0,0,1,2-3.21,2.41,2.41,0,0,1,2.29-.47c-1.39-.41-5.56-1.37-7.59,1.39l-4.8,12.26Z"/><path class="cls-2" d="M176.47,16.09a14.27,14.27,0,0,1-6.78-.25,4.55,4.55,0,0,1-3-4L165,0l5.45,3.14,1,6.59s1,5.9,5.09,6.36"/><path class="cls-5" d="M184,11l-7.23,1.07a7.93,7.93,0,0,1-3.78-.14,2.43,2.43,0,0,1-1.55-1.75c.34,1.41,1.58,5.5,5,5.89l13-1.94Z"/><path class="cls-1" d="M155.22,35.91a2.15,2.15,0,1,1-2.15-2.15A2.14,2.14,0,0,1,155.22,35.91Zm-.48,0a1.67,1.67,0,1,0-3.34,0h0a1.67,1.67,0,0,0,3.34,0Zm-1.19.28.6.89h-.56l-.51-.82h-.35v.82h-.48V34.76h1a.77.77,0,0,1,.88.63s0,.08,0,.12a.7.7,0,0,1-.59.69Zm-.83-.31h.47c.26,0,.41-.12.41-.37s-.15-.38-.41-.38h-.47Z"/></svg>
