<svg xmlns="http://www.w3.org/2000/svg" width="148" height="38" viewBox="0 0 148 38">
  <path id="Path_546" data-name="Path 546" d="M144.333,28.131a1,1,0,0,0-1.385.163c-.407.652-1.222,1.874-1.467,2.2a26.956,26.956,0,0,1-2.852,3.34,7.234,7.234,0,0,1-4.238,2.281,4.8,4.8,0,0,1-3.586-1.629,20.822,20.822,0,0,1-3.178-4.4,3.86,3.86,0,0,0-1.711-1.711,2.694,2.694,0,0,0-2.363.163,5.73,5.73,0,0,0-1.793,1.629,20.639,20.639,0,0,0-1.467,2.2,4.45,4.45,0,0,0-2.445-3.177c-1.793-.652-3.423.652-4.89,1.466-1.222.733-2.689,1.548-4.808.407a11.409,11.409,0,0,0,3.341-4.725c.489-1.629.57-3.666-.9-4.806s-3.423-.652-4.808.407a6.121,6.121,0,0,0-2.282,4.236,7.169,7.169,0,0,0,1.548,4.887,11.741,11.741,0,0,1-3.178,1.629,9.666,9.666,0,0,1-5.053,0,7.728,7.728,0,0,1-3.5-2.281,8.031,8.031,0,0,0,3.83-3.1,4.474,4.474,0,0,0,.244-4.806,3.221,3.221,0,0,0-4.075-1.059,8.927,8.927,0,0,0-3.667,3.5,51.008,51.008,0,0,0-2.771,4.48c-.081-.9-.407-3.829-.489-4.073a48.259,48.259,0,0,0,2.934-5.783,49.865,49.865,0,0,0,3.341-11,15.011,15.011,0,0,0,0-5.05A3.869,3.869,0,0,0,89.485.191a3.934,3.934,0,0,0-3.912,2.036A12.913,12.913,0,0,0,84.106,6.87a56.1,56.1,0,0,0-.326,11.241c.082,1.874.326,4.725.489,6.761a8.924,8.924,0,0,1-.978,1.3,5.118,5.118,0,0,1-1.711,1.548,1.833,1.833,0,0,1-2.2,0c-.815-.57-1.63-2.444-1.956-4.073a1.007,1.007,0,0,0-1.059-.977.983.983,0,0,0-.978,1.059,11.208,11.208,0,0,1-1.059,3.421c-.815,1.3-1.956,2.444-3.423,2.362-1.711-.081-3.015-1.629-3.83-3.421a46.058,46.058,0,0,0,2.445-4.48,42.973,42.973,0,0,0,3.341-10.427c.408-3.421-.081-5.539-.978-7.087A3.752,3.752,0,0,0,69.11,2.227a4.176,4.176,0,0,0-3.1,1.14,9.2,9.2,0,0,0-2.363,3.91A25.773,25.773,0,0,0,62.835,17.3a30.857,30.857,0,0,0,.9,5.376,21.616,21.616,0,0,0,1.06,3.34,23.416,23.416,0,0,1-2.526,3.1c-.734.733-2.689,2.444-4.808,2.362a5.6,5.6,0,0,1-1.956-.407,7.87,7.87,0,0,1-3.586-3.1c.082-.163.733-1.059,1.141-1.711s.733-1.3,1.059-1.955a22.2,22.2,0,0,0,1.548-4.643,24.336,24.336,0,0,0,.57-5.458,10.561,10.561,0,0,0-.978-4.48,4.335,4.335,0,0,0-1.63-1.792,2.867,2.867,0,0,0-2.445-.244,5.281,5.281,0,0,0-3.015,3.421,15.757,15.757,0,0,0-.978,4.725,24.057,24.057,0,0,0,1.548,10.182c.163.326.57,1.3.815,1.792a8.993,8.993,0,0,1-2.363,1.955,4.243,4.243,0,0,1-4.482.163c-1.385-.9-2.282-3.014-2.445-5.05a1,1,0,0,0-.978-1.059,1.078,1.078,0,0,0-1.059,1.14A7.148,7.148,0,0,1,37,29.19a4.833,4.833,0,0,1-3.912,2.036,4.421,4.421,0,0,1-3.667-2.2,15.336,15.336,0,0,1-2.037-4.562c-.57-1.792-.9-3.666-1.3-5.458a31.283,31.283,0,0,0-.9-3.421,4.38,4.38,0,0,0-1.467-2.2,2.876,2.876,0,0,0-2.2-.652,3,3,0,0,0-1.793.815,5.923,5.923,0,0,0-1.63,3.258,20.791,20.791,0,0,0-.326,4.887c.082,1.548.163,3.1.326,4.643a79.393,79.393,0,0,1-2.445-7.9c-.489-1.792-.9-3.5-1.548-5.213a8.237,8.237,0,0,0-2.526-4.073,2.78,2.78,0,0,0-2.363-.489,3.549,3.549,0,0,0-1.793,1.3A11.329,11.329,0,0,0,5.868,14.12a33.141,33.141,0,0,0-.407,4.969,55.73,55.73,0,0,0,.978,10.589A103.242,103.242,0,0,1,2.771,15.016c-.244-1.711-.652-4.969-.815-7.005A1.05,1.05,0,0,0,.9,6.87,1.014,1.014,0,0,0,0,8.011c.081,2.118.652,6.517,1.059,8.96C1.793,21.044,3.423,27.8,5.542,32.2a29.765,29.765,0,0,0,2.526,4.643c.407.57,1.141,1.629,2.2,1.059a1.475,1.475,0,0,0,.57-1.792c-.163-.652-.978-2.444-1.222-3.258a33.408,33.408,0,0,1-1.793-8.472c-.163-1.792-.244-3.5-.244-5.295,0-4.317.733-7.25,1.548-8.227a1.3,1.3,0,0,1,.733-.57c.57-.081.978.244,1.63,1.385a26.86,26.86,0,0,1,1.874,5.458l1.467,5.376a37.658,37.658,0,0,0,4.319,10.019c.244.326.652,1.14,1.548.815a.951.951,0,0,0,.57-.9,8.451,8.451,0,0,0-.245-.978,39.671,39.671,0,0,1-.978-6.517C19.885,23,19.8,21.207,19.8,19.985a16.718,16.718,0,0,1,.489-3.991c.163-.489.57-1.466,1.3-1.548.652-.081.978.244,1.3.9a18.076,18.076,0,0,1,1.222,4.236c.407,1.792.733,3.584,1.3,5.376a17.7,17.7,0,0,0,1.956,4.4,7.943,7.943,0,0,0,3.667,3.258,6.322,6.322,0,0,0,4.727-.163,6.99,6.99,0,0,0,3.5-3.5,6.431,6.431,0,0,0,1.711,2.2,5.776,5.776,0,0,0,4.89,1.059,9.3,9.3,0,0,0,4.645-2.851,9.065,9.065,0,0,0,6.846,3.91c3.586.081,6.438-2.77,8.476-5.458a7.475,7.475,0,0,0,3.178,3.177,5.1,5.1,0,0,0,4.482-.163,7.549,7.549,0,0,0,3.178-3.747,4.568,4.568,0,0,0,3.749,2.851c1.711.081,3.26-1.14,4.319-2.362.163,1.14.244,2.362.407,3.5.082.326.082.733.163,1.059a4.292,4.292,0,0,0,.244.977,1.031,1.031,0,0,0,1.711-.163c.407-.9.9-1.711,1.3-2.525a37.215,37.215,0,0,1,2.363-3.829,11,11,0,0,1,3.1-3.34,1.254,1.254,0,0,1,1.63.163,1.99,1.99,0,0,1,.163,2.118,5.891,5.891,0,0,1-3.586,3.1,4.6,4.6,0,0,1-.978.326,1.1,1.1,0,0,0-.571.9,2.171,2.171,0,0,0,.571,1.14,9.431,9.431,0,0,0,3.178,2.77,11,11,0,0,0,9.617.244c.815-.407,2.037-1.222,2.445-1.466a6.217,6.217,0,0,0,4.808,1.059,7.836,7.836,0,0,0,2.282-.9,17.81,17.81,0,0,1,2.363-1.385,2.89,2.89,0,0,1,.9-.244.856.856,0,0,1,.733.407,5.373,5.373,0,0,1,.9,2.118,16.3,16.3,0,0,1,.326,1.955.928.928,0,0,0,.9.9,1.01,1.01,0,0,0,1.059-.733,10.128,10.128,0,0,1,.815-1.629,22.437,22.437,0,0,1,1.385-2.362c.408-.57,1.223-1.629,1.956-1.548.489.081.9.815,1.141,1.3a18.407,18.407,0,0,0,1.3,2.118,11.762,11.762,0,0,0,3.749,3.747,6.329,6.329,0,0,0,3.179.815,8.518,8.518,0,0,0,4.808-2.2,21.22,21.22,0,0,0,2.934-3.1c.734-.9,1.956-2.688,2.363-3.34C144.822,29.271,144.9,28.619,144.333,28.131ZM49.143,18.519c-.163-2.118.081-5.376.978-7.087.489-1.059,1.3-2.036,2.037-1.955.9.081,1.467,1.14,1.793,2.362a15.373,15.373,0,0,1,.163,5.132,20.415,20.415,0,0,1-3.178,8.96A18.035,18.035,0,0,1,49.143,18.519Zm15.729-6.109a20.578,20.578,0,0,1,.733-4.48,7.428,7.428,0,0,1,2.037-3.34A2.3,2.3,0,0,1,68.866,4.1a1.162,1.162,0,0,1,.978.489c.978.977,1.141,2.444,1.222,4.154a18.813,18.813,0,0,1-.733,4.969,48.085,48.085,0,0,1-4.075,9.938A34.353,34.353,0,0,1,64.872,12.409ZM86.225,21.7a75.915,75.915,0,0,1-.245-11.4A19.692,19.692,0,0,1,87.447,3.2a1.883,1.883,0,0,1,2.119-1.14c1.141.244,1.3,1.466,1.467,2.2a23.307,23.307,0,0,1-.815,7.005A53.947,53.947,0,0,1,86.225,21.7Zm20.456,8.146a4.76,4.76,0,0,1-1.059-3.258,4.26,4.26,0,0,1,1.467-2.932c.163-.163.407-.244.57-.407.57-.326,1.548-.489,1.956.163a2.512,2.512,0,0,1,.082,2.281A10.344,10.344,0,0,1,106.681,29.841ZM38.956,21.533a1.466,1.466,0,1,0-1.467-1.466A1.515,1.515,0,0,0,38.956,21.533ZM76.2,20.311a1.466,1.466,0,1,0-1.467-1.466A1.575,1.575,0,0,0,76.2,20.311Zm69.925,12.87a1.827,1.827,0,0,0-1.793,1.874,1.834,1.834,0,1,0,3.667,0A1.951,1.951,0,0,0,146.126,33.181Zm0,3.34a1.548,1.548,0,1,1,0-3.1,1.548,1.548,0,1,1,0,3.1Zm.733-1.955h0a.622.622,0,0,0-.163-.407.95.95,0,0,0-.57-.163h-.815v1.874h.326v-.652h.407l.489.652h.407l-.489-.733A.543.543,0,0,0,146.859,34.566Zm-1.141.326V34.24h.489c.245,0,.408.081.408.326h0a.373.373,0,0,1-.408.326h-.489Z" transform="translate(0 -0.149)" fill="#00378c"/>
</svg>
